<?xml version="1.0" encoding="UTF-8"?>
<svg id="Layer_1" xmlns="http://www.w3.org/2000/svg" version="1.1" viewBox="0 0 285.3 30.9">
  <!-- Generator: Adobe Illustrator 30.5.1, SVG Export Plug-In . SVG Version: 2.1.4 Build 3)  -->
  <defs>
    <style>
      .st0, .st1 {
        fill: #fff;
      }

      .st2 {
        letter-spacing: .1em;
      }

      .st1 {
        font-family: Signal-Bold, Signal;
        font-size: 8.2px;
        font-weight: 700;
      }
    </style>
  </defs>
  <g>
    <path class="st0" d="M12.3,12.5c-.5.4-1,.7-1.5.9-.5.2-1.1.4-1.7.6-.6.1-1.2.2-1.7.2-1,0-2-.2-2.9-.6-.9-.4-1.7-.9-2.3-1.6-.7-.7-1.2-1.4-1.6-2.3-.4-.9-.6-1.8-.6-2.7s.2-1.8.6-2.7c.4-.8.9-1.6,1.5-2.2.7-.6,1.4-1.1,2.3-1.5C5.3.2,6.3,0,7.4,0s2.3.2,3.2.7c1,.5,1.8,1.1,2.5,2v.2c.1,0-1,.9-1,.9v-.2c-.7-.7-1.4-1.3-2.2-1.7-.7-.4-1.6-.6-2.6-.6s-1.6.2-2.3.5c-.7.3-1.4.7-1.9,1.2-.5.5-1,1.1-1.3,1.8-.3.7-.5,1.4-.5,2.2s.2,1.5.5,2.2c.3.7.7,1.3,1.3,1.9.5.5,1.2,1,1.9,1.3.7.3,1.5.5,2.3.5s1.9-.2,2.7-.5c.8-.3,1.5-.9,2-1.6v-1.9h-5.4v-1.4h6.9v3.3c0,.2,0,.3-.1.5-.3.5-.7.9-1.1,1.3"/>
    <path class="st0" d="M20.6,13.9L26.6.5c0-.1.2-.3.3-.4s.3-.2.5-.2.4,0,.5.1c.1,0,.2.2.3.4l5.9,13.4h-1.6l-2.4-5.4h-5.5l-2.4,5.4h-1.6ZM29.6,7.3l-2.2-4.9-2.2,4.9h4.4Z"/>
    <path class="st0" d="M43,13.9c-.2,0-.5,0-.6-.2-.2-.2-.3-.4-.3-.6V1.1c0-.2,0-.4.2-.6.2-.2.4-.2.6-.2h5.9c.6,0,1.1,0,1.6.3.5.2.9.5,1.3.8.4.3.6.7.8,1.2.2.5.3.9.3,1.5s-.1,1.1-.4,1.6c-.2.5-.6.9-1,1.3.6.3,1.1.8,1.5,1.3.3.5.5,1.2.5,1.9s0,1-.3,1.5c-.2.5-.5.9-.8,1.2-.4.3-.8.6-1.3.8-.5.2-1,.3-1.6.3h-6.5ZM43.6,6.4h5.3c.4,0,.7,0,1-.2.3-.1.6-.3.8-.5s.4-.5.5-.8c.1-.3.2-.6.2-.9s0-.6-.2-.9c-.1-.3-.3-.5-.5-.7s-.5-.4-.8-.5c-.3-.1-.6-.2-1-.2h-5.3v4.7ZM49.5,12.5c.4,0,.7,0,1-.2.3-.1.6-.3.8-.5.2-.2.4-.5.5-.8.1-.3.2-.6.2-.9s0-.6-.2-.9c-.1-.3-.3-.5-.5-.7-.2-.2-.5-.4-.8-.5-.3-.1-.6-.2-1-.2h-5.9v4.7h5.9Z"/>
    <path class="st0" d="M68.9,8.8h-4.5v5.2h-1.5V1.1c0-.2,0-.4.2-.6.2-.2.4-.2.6-.2h5.6c.7,0,1.3.1,1.8.4.6.2,1,.6,1.4,1,.4.4.7.9.9,1.4.2.5.3,1.1.3,1.7s0,1-.3,1.4c-.2.4-.4.8-.7,1.2-.3.4-.7.6-1.1.9-.4.2-.9.4-1.4.5l3.9,5.3h-1.7l-3.8-5.2ZM64.4,7.4h5.1c.4,0,.8,0,1.2-.2.4-.1.7-.3,1-.6.3-.2.5-.5.6-.9.2-.3.2-.7.2-1.1s0-.8-.2-1.1c-.2-.4-.4-.7-.6-.9-.3-.3-.6-.5-1-.7-.4-.2-.8-.2-1.2-.2h-5.1v5.7Z"/>
    <rect class="st0" x="82.5" y=".3" width="1.5" height="13.7"/>
    <path class="st0" d="M103.2,7.8h-9.1v4.8h9.6v1.4h-10.2c-.2,0-.5,0-.6-.2-.2-.2-.3-.4-.3-.6V1.1c0-.2,0-.4.2-.6.2-.2.4-.2.6-.2h10.2v1.4h-9.6v4.7h9.1v1.4Z"/>
    <path class="st0" d="M113.9,13.7c-.2-.2-.3-.4-.3-.6V.3h1.5v12.3h9.3v1.4h-9.8c-.2,0-.5,0-.6-.2"/>
    <path class="st0" d="M143.4,7.8h-9.1v4.8h9.6v1.4h-10.2c-.2,0-.5,0-.6-.2-.2-.2-.3-.4-.3-.6V1.1c0-.2,0-.4.2-.6.2-.2.4-.2.6-.2h10.2v1.4h-9.6v4.7h9.1v1.4Z"/>
    <path class="st0" d="M159.3,8.8h-4.5v5.2h-1.5V1.1c0-.2,0-.4.2-.6.2-.2.4-.2.6-.2h5.6c.7,0,1.3.1,1.8.4.6.2,1,.6,1.4,1,.4.4.7.9.9,1.4.2.5.3,1.1.3,1.7s0,1-.3,1.4-.4.8-.7,1.2c-.3.4-.7.6-1.1.9-.4.2-.9.4-1.4.5l3.9,5.3h-1.7l-3.8-5.2ZM154.9,7.4h5.1c.4,0,.8,0,1.2-.2.4-.1.7-.3,1-.6.3-.2.5-.5.6-.9.2-.3.2-.7.2-1.1s0-.8-.2-1.1c-.2-.4-.4-.7-.6-.9-.3-.3-.6-.5-1-.7-.4-.2-.8-.2-1.2-.2h-5.1v5.7Z"/>
    <rect class="st0" x="173" y=".3" width="1.5" height="13.7"/>
    <path class="st0" d="M192.8,1.7h-9.8V.3h11.1c.2,0,.5,0,.6.2.2.2.2.4.2.6s0,.2,0,.3c0,0,0,.2-.2.3l-9.8,10.9h9.9v1.4h-11.2c-.3,0-.5,0-.6-.3-.2-.2-.2-.4-.2-.6s0-.4.2-.5l9.8-10.9Z"/>
    <path class="st0" d="M213.3,1.7h-9.8V.3h11.1c.2,0,.5,0,.6.2.2.2.2.4.2.6s0,.2,0,.3c0,0,0,.2-.2.3l-9.8,10.9h9.9v1.4h-11.2c-.3,0-.5,0-.6-.3-.2-.2-.2-.4-.2-.6s0-.4.2-.5l9.8-10.9Z"/>
    <rect class="st0" x="224.5" y=".3" width="1.5" height="13.7"/>
    <path class="st0" d="M234.9,13.7c-.2-.2-.3-.4-.3-.6V.3h1.5v12.3h9.3v1.4h-9.8c-.2,0-.5,0-.6-.2"/>
    <path class="st0" d="M252.4,13.9l6-13.4c0-.1.2-.3.3-.4.1-.1.3-.2.5-.2s.4,0,.5.1c.1,0,.2.2.3.4l5.9,13.4h-1.6l-2.4-5.4h-5.5l-2.4,5.4h-1.6ZM261.4,7.3l-2.2-4.9-2.2,4.9h4.4Z"/>
    <path class="st0" d="M274.8,13.9c-.2,0-.5,0-.6-.2-.2-.2-.3-.4-.3-.6V1.1c0-.2,0-.4.2-.6.2-.2.4-.2.6-.2h5.9c.6,0,1.1,0,1.6.3.5.2.9.5,1.3.8.4.3.6.7.8,1.2.2.5.3.9.3,1.5s-.1,1.1-.4,1.6c-.2.5-.6.9-1,1.3.6.3,1.1.8,1.5,1.3.3.5.5,1.2.5,1.9s0,1-.3,1.5c-.2.5-.5.9-.8,1.2-.4.3-.8.6-1.3.8-.5.2-1,.3-1.6.3h-6.5ZM275.4,6.4h5.3c.4,0,.7,0,1-.2.3-.1.6-.3.8-.5.2-.2.4-.5.5-.8.1-.3.2-.6.2-.9s0-.6-.2-.9c-.1-.3-.3-.5-.5-.7-.2-.2-.5-.4-.8-.5-.3-.1-.6-.2-1-.2h-5.3v4.7ZM281.3,12.5c.4,0,.7,0,1-.2.3-.1.6-.3.8-.5.2-.2.4-.5.5-.8.1-.3.2-.6.2-.9s0-.6-.2-.9c-.1-.3-.3-.5-.5-.7-.2-.2-.5-.4-.8-.5-.3-.1-.6-.2-1-.2h-5.9v4.7h5.9Z"/>
  </g>
  <text class="st1" transform="translate(.5 29.4)"><tspan x="0" y="0">h</tspan></text>
  <text class="st1" transform="translate(9.4 29.4)"><tspan x="0" y="0">a</tspan></text>
  <text class="st1" transform="translate(17.7 29.4)"><tspan x="0" y="0">u</tspan></text>
  <text class="st1" transform="translate(26.4 29.4)"><tspan x="0" y="0">t</tspan></text>
  <text class="st1" transform="translate(35 29.4)"><tspan x="0" y="0">e</tspan></text>
  <text class="st1" transform="translate(43.7 29.4)"><tspan class="st2" x="0" y="0"> </tspan><tspan x="4.8" y="0">c</tspan></text>
  <text class="st1" transform="translate(57.4 29.4)"><tspan x="0" y="0">r</tspan></text>
  <text class="st1" transform="translate(66 29.4)"><tspan x="0" y="0">e</tspan></text>
  <text class="st1" transform="translate(74.5 29.4)"><tspan x="0" y="0">a</tspan></text>
  <text class="st1" transform="translate(82.2 29.4)"><tspan x="0" y="0">t</tspan></text>
  <text class="st1" transform="translate(90.6 29.4)"><tspan x="0" y="0">i</tspan></text>
  <text class="st1" transform="translate(94.4 29.4)"><tspan x="0" y="0">v</tspan></text>
  <text class="st1" transform="translate(103.3 29.4)"><tspan x="0" y="0">i</tspan></text>
  <text class="st1" transform="translate(107.4 29.4)"><tspan x="0" y="0">t</tspan></text>
  <text class="st1" transform="translate(115.7 29.4)"><tspan x="0" y="0">y</tspan></text>
</svg>