<svg xmlns="http://www.w3.org/2000/svg" viewBox="0 0 160 160" role="img">
<g transform="matrix(1 0 0 -1 0 160)">
  <path d="M0 0 L12.976 24.07 L15.961 29.604 L24.541 45.524 L37.182 68.981 L38.681 71.761 L39.703 73.655 L40.46 75.059 L43.418 80.559 L56.83 105.433 L57.156 106.047 L74.357 137.968" transform="matrix(1 0 0 1 62.3503 10.3765)" fill="none" stroke="#fff" stroke-width="0.682"/>
  <path d="M0 0 C3.727 -3.837 7.973 -6.658 12.737 -8.471 C7.353 -8.089 2.126 -6.958 -2.787 -5.172 Z" transform="matrix(1 0 0 1 56.073 46.9143)" fill="#fff" fill-rule="nonzero"/>
  <path d="M0 0 C-8.253 -3.142 -14.938 -9.302 -20.09 -18.489 C-24.179 -25.774 -26.653 -34.238 -27.498 -43.881 C-27.703 -46.15 -27.686 -48.6 -27.706 -51.006 C-27.686 -53.412 -27.646 -53.611 -27.706 -58.026 L-27.498 -92.403 C-40.937 -83.38 -49.96 -68.585 -49.776 -50.894 C-50.069 -22.728 -27.056 -1.915 0 0" transform="matrix(1 0 0 1 68.8103 140.2244)" fill="#fff" fill-rule="nonzero"/>
  <path d="M0 0 L18.557 0 L10.952 -14.12 C10.638 -11.156 9.963 -8.743 8.935 -6.883 C7.456 -4.211 4.464 -1.928 0 0" transform="matrix(1 0 0 1 76.2041 84.5837)" fill="#fff" fill-rule="nonzero"/>
  <path d="M0 0 L-35.192 0 L-26.612 15.92 L-13.971 39.377 L-12.471 42.157 L-11.449 44.051 L-11.449 20.24 C-11.449 14.38 -10.72 10.011 -9.227 7.155 C-7.769 4.3 -4.689 1.908 0 0" transform="matrix(1 0 0 1 120.7391 38.4398)" fill="#fff" fill-rule="nonzero"/>
  <path d="M0 0 C11.716 5.156 29.99 -5.55 22.869 -18.951 C21.461 -21.601 19.403 -23.341 16.725 -24.183 C14.018 -25.011 11.257 -24.677 8.386 -23.151 C5.763 -21.757 3.95 -19.838 2.92 -17.379 C1.89 -14.919 2.166 -12.269 3.691 -9.397 C4.513 -7.851 5.788 -6.652 7.516 -5.799 C16.211 -1.649 3.923 -0.556 0 0" transform="matrix(1 0 0 1 82.5278 139.8393)" fill="#fff" fill-rule="evenodd"/>
  <path d="M0 0 L-0.184 -0.367 C-1.284 0 -2.384 0.183 -4.218 0.183 C-6.786 0.183 -9.353 -1.009 -11.553 -3.759 L-11.553 -47.957 L-11.921 -47.957 L-11.921 0.183 L-11.553 0.183 L-11.553 -3.118 C-9.261 -0.55 -6.969 0.55 -4.218 0.55 C-2.384 0.55 -1.284 0.367 0 0" transform="matrix(1 0 0 1 59.2461 93.394)" fill="#fff" fill-rule="nonzero"/>
  <path d="M0 0 L-0.184 -0.367 C-1.284 0 -2.384 0.183 -4.218 0.183 C-6.786 0.183 -9.353 -1.009 -11.553 -3.759 L-11.553 -47.957 L-11.921 -47.957 L-11.921 0.183 L-11.553 0.183 L-11.553 -3.118 C-9.261 -0.55 -6.969 0.55 -4.218 0.55 C-2.384 0.55 -1.284 0.367 0 0" transform="matrix(1 0 0 1 59.2461 93.394)" fill="#fff" fill-rule="nonzero"/>
</g>
</svg>
